<mxfile host="app.diagrams.net" modified="2022-09-26T07:00:05.934Z" agent="5.0 (Windows NT 10.0; Win64; x64) AppleWebKit/537.36 (KHTML, like Gecko) Chrome/105.0.0.0 Safari/537.36" etag="GGLZOAu9o2htXkCtCIq6" version="18.0.2" type="github">
  <diagram name="Page-1" id="822b0af5-4adb-64df-f703-e8dfc1f81529">
    <mxGraphModel dx="2773" dy="934" grid="1" gridSize="10" guides="1" tooltips="1" connect="1" arrows="1" fold="1" page="1" pageScale="1" pageWidth="1100" pageHeight="850" background="none" math="0" shadow="0">
      <root>
        <mxCell id="0" />
        <mxCell id="1" parent="0" />
        <mxCell id="gFXCr4dAzFciMiVqSGEx-2" value="" style="endArrow=none;dashed=1;dashPattern=1 3;strokeWidth=2;rounded=0;" edge="1" parent="1">
          <mxGeometry width="50" height="50" relative="1" as="geometry">
            <mxPoint x="-70" y="490" as="sourcePoint" />
            <mxPoint x="-70" y="230" as="targetPoint" />
          </mxGeometry>
        </mxCell>
        <mxCell id="gFXCr4dAzFciMiVqSGEx-5" value="10.169.15.100" style="aspect=fixed;perimeter=ellipsePerimeter;align=center;shadow=0;dashed=0;spacingTop=3;image;image=img/lib/active_directory/databases.svg;" vertex="1" parent="1">
          <mxGeometry x="380" y="30" width="147.96" height="145" as="geometry" />
        </mxCell>
        <mxCell id="gFXCr4dAzFciMiVqSGEx-6" value="" style="aspect=fixed;perimeter=ellipsePerimeter;align=center;shadow=0;dashed=0;spacingTop=3;image;image=img/lib/active_directory/writer.svg;imageBackground=#CCCC00;" vertex="1" parent="1">
          <mxGeometry x="-360" y="260" width="192" height="200" as="geometry" />
        </mxCell>
      </root>
    </mxGraphModel>
  </diagram>
</mxfile>
